<svg xmlns="http://www.w3.org/2000/svg" xmlns:xlink="http://www.w3.org/1999/xlink" width="43" height="43" viewBox="0 0 43 43"><defs><path id="srpha" d="M708.05 602c0 5.52-1.95 10.23-5.86 14.14a19.27 19.27 0 0 1-14.14 5.86 19.27 19.27 0 0 1-14.14-5.86 19.27 19.27 0 0 1-5.85-14.14c0-5.52 1.95-10.23 5.85-14.14 3.91-3.9 8.62-5.86 14.14-5.86 5.52 0 10.24 1.95 14.14 5.86 3.9 3.9 5.86 8.62 5.86 14.14zm-1.64 0c0-5.1-1.78-9.44-5.35-13a17.71 17.71 0 0 0-13-5.36 17.7 17.7 0 0 0-13.01 5.35 17.7 17.7 0 0 0-5.35 13c0 5.11 1.78 9.45 5.35 13.02a17.7 17.7 0 0 0 13 5.35c5.1 0 9.44-1.78 13.01-5.35a17.7 17.7 0 0 0 5.35-13.01zm-20.9-2.5a16.6 16.6 0 0 0 3.91 1.76 11.5 11.5 0 0 1 3.95 2.15 4.9 4.9 0 0 1 .3 7.46 7.1 7.1 0 0 1-4.29 1.83v2.66h-1.8v-2.9c-2.8-.1-4.92-.93-6.32-2.5l1.33-1.48.62.55c.47.42 1.18.82 2.15 1.21.96.4 1.96.59 3 .59 1.3 0 2.39-.33 3.25-.98a3.04 3.04 0 0 0 1.29-2.54c0-1.14-.59-2.1-1.76-2.89a14.12 14.12 0 0 0-3.9-1.8 10.86 10.86 0 0 1-3.91-2.07 4.44 4.44 0 0 1-1.76-3.55c0-1.35.55-2.57 1.64-3.63a6.62 6.62 0 0 1 4.14-1.84v-2.89h1.88v2.9c2.34.1 4.1.75 5.3 1.94l-1.16 1.72-.63-.47a7.79 7.79 0 0 0-1.87-.93 7.08 7.08 0 0 0-2.5-.47 5.2 5.2 0 0 0-3.32 1.01 3.08 3.08 0 0 0-1.3 2.5c0 1.05.6 1.93 1.76 2.66z"/></defs><g><g transform="translate(-667 -580)"><use fill="#38c695" xlink:href="#srpha"/></g></g></svg>