<svg xmlns="http://www.w3.org/2000/svg" xmlns:xlink="http://www.w3.org/1999/xlink" width="42" height="43" viewBox="0 0 42 43"><defs><path id="bdt7a" d="M941.65 602c0 5.1 1.77 9.44 5.33 13a17.6 17.6 0 0 0 12.95 5.36c5.08 0 9.4-1.78 12.96-5.35A17.75 17.75 0 0 0 978.2 602c0-5.1-1.77-9.44-5.32-13a17.6 17.6 0 0 0-12.96-5.36 17.6 17.6 0 0 0-12.95 5.35 17.74 17.74 0 0 0-5.33 13zm38.2 0a19.3 19.3 0 0 1-5.84 14.14 19.15 19.15 0 0 1-14.08 5.86c-5.5 0-10.19-1.95-14.08-5.86a19.3 19.3 0 0 1-5.84-14.14c0-5.52 1.95-10.23 5.84-14.14a19.15 19.15 0 0 1 14.08-5.86c5.5 0 10.2 1.95 14.08 5.86a19.31 19.31 0 0 1 5.84 14.14zm-19.92 4.53l-8.95-8.83 1.33-1.33 7.62 7.82L970.9 593l1.32 1.33zm.94-20.47c.25.26.38.58.38.94s-.13.68-.38.94c-.27.26-.58.39-.94.39s-.67-.13-.93-.4a1.28 1.28 0 0 1-.4-.93c0-.36.14-.68.4-.94.26-.26.57-.39.93-.39.36 0 .67.13.94.4zm0 30c.25.26.38.58.38.94s-.13.68-.38.94c-.27.26-.58.39-.94.39s-.67-.13-.93-.4a1.28 1.28 0 0 1-.4-.93c0-.36.14-.68.4-.94.26-.26.57-.39.93-.39.36 0 .67.13.94.4zm-14.94-15c.26.26.39.58.39.94s-.13.68-.4.94c-.25.26-.56.39-.93.39-.36 0-.67-.13-.93-.4a1.28 1.28 0 0 1-.39-.93c0-.36.13-.68.39-.94.26-.26.57-.39.93-.39.37 0 .68.13.94.4zm29.87 0c.26.26.4.58.4.94s-.14.68-.4.94c-.26.26-.57.39-.93.39-.36 0-.68-.13-.93-.4a1.28 1.28 0 0 1-.4-.93c0-.36.14-.68.4-.94.25-.26.57-.39.93-.39.36 0 .67.13.93.4z"/></defs><g><g transform="translate(-939 -580)"><use fill="#b27cf5" xlink:href="#bdt7a"/></g></g></svg>