<svg xmlns="http://www.w3.org/2000/svg" xmlns:xlink="http://www.w3.org/1999/xlink" width="43" height="43" viewBox="0 0 43 43"><defs><path id="d977a" d="M1234.2 601.98c0 5.5-1.94 10.2-5.82 14.11a19.09 19.09 0 0 1-14.04 5.86 19.08 19.08 0 0 1-14.04-5.86 19.29 19.29 0 0 1-5.83-14.11c0-5.5 1.94-10.21 5.83-14.12a19.09 19.09 0 0 1 14.04-5.86 19.1 19.1 0 0 1 14.04 5.86 19.3 19.3 0 0 1 5.83 14.12zm-1.58 0c0-5.07-1.79-9.4-5.36-13a17.57 17.57 0 0 0-12.92-5.39c-5.04 0-9.35 1.8-12.92 5.4a17.75 17.75 0 0 0-5.37 12.99c0 5.06 1.8 9.39 5.37 12.98 3.57 3.6 7.88 5.4 12.92 5.4 5.03 0 9.34-1.8 12.92-5.4a17.75 17.75 0 0 0 5.36-12.98zm-6.62-7.13c.56.56.52 1.12-.1 1.69l-13.62 13.31a1 1 0 0 1-.74.28c-.37 0-.65-.09-.84-.28l-5.32-5.34c-.56-.57-.56-1.13 0-1.69s1.12-.56 1.68 0l4.48 4.5 12.78-12.47c.56-.57 1.12-.57 1.68 0z"/></defs><g><g transform="translate(-1193 -580)"><use fill="#feb960" xlink:href="#d977a"/></g></g></svg>