<svg xmlns="http://www.w3.org/2000/svg" xmlns:xlink="http://www.w3.org/1999/xlink" width="58" height="45" viewBox="0 0 58 45"><defs><path id="zbwha" d="M1125.4 2282H1079v-36.1h46.4zm-44.68-34.39v22.9l11.17-11.3 12.25 13.98 8.48-5.16 11.07 9.56v-29.98zm42.97 32.67v-.43l-11.28-9.67-8.7 5.16-11.82-13.54-11.17 11.06v7.42zm-36.96-41.26H1134v36.1h-7.73v-1.72h6.01v-32.66h-43.83v4.3h-1.72zm21.49 18.9c0-1.42.5-2.64 1.5-3.64s2.22-1.5 3.65-1.5c1.44 0 2.65.5 3.66 1.5 1 1 1.5 2.22 1.5 3.65 0 1.43-.5 2.65-1.5 3.65s-2.22 1.5-3.66 1.5c-1.43 0-2.65-.5-3.65-1.5s-1.5-2.22-1.5-3.65zm1.72 0c0 1.01.32 1.83.96 2.48.65.64 1.47.97 2.47.97 1 0 1.83-.33 2.48-.97.64-.65.96-1.47.96-2.47 0-1-.32-1.83-.96-2.47a3.35 3.35 0 0 0-2.48-.97c-1 0-1.82.32-2.47.97a3.35 3.35 0 0 0-.96 2.47z"/></defs><g><g transform="translate(-1077 -2238)"><use fill="#b27cf5" xlink:href="#zbwha"/></g></g></svg>