<svg xmlns="http://www.w3.org/2000/svg" xmlns:xlink="http://www.w3.org/1999/xlink" width="47" height="43" viewBox="0 0 47 43"><defs><path id="rh6ja" d="M1404.25 2281.02h-27.5v-40h27.5zm-26.25-38.75v3.75h25v-3.75zm0 5v25h25v-25zm25 32.5v-6.25h-25v6.25zm-15-36.25h5v1.25h-5zm4.37 33.12c0 .52-.18.97-.54 1.33-.37.36-.81.55-1.33.55a1.8 1.8 0 0 1-1.33-.55 1.8 1.8 0 0 1-.54-1.33c0-.52.18-.96.54-1.33.37-.36.8-.54 1.33-.54.52 0 .96.18 1.33.54.36.37.54.81.54 1.33zm-1.87-.62c-.42 0-.62.2-.62.62s.2.63.62.63.62-.21.62-.63c0-.42-.2-.62-.62-.62zm14.03-25h15.94v30h-15.94zm15 29.06v-4.69h-14.06v4.69zm0-5.63v-18.75h-14.06v18.75zm-14.06-22.5v2.82h14.06v-2.82zm5.16.94h3.74v.94h-3.74zm3.28 24.84c0 .4-.14.73-.41 1-.28.27-.61.41-1 .41-.4 0-.72-.14-1-.4-.27-.28-.4-.61-.4-1 0-.4.13-.73.4-1 .28-.27.6-.41 1-.41.39 0 .72.14 1 .4.27.28.4.61.4 1zm-1.41-.46c-.31 0-.47.15-.47.46 0 .32.16.47.47.47.31 0 .47-.15.47-.47 0-.3-.16-.46-.47-.46z"/></defs><g><g transform="translate(-1375 -2240)"><use fill="#feb960" xlink:href="#rh6ja"/></g></g></svg>