<svg xmlns="http://www.w3.org/2000/svg" xmlns:xlink="http://www.w3.org/1999/xlink" width="49" height="51" viewBox="0 0 49 51"><defs><path id="tb2ba" d="M850.04 10232.27c-.74.9-1.7 1.46-2.86 1.7v34.1h-2v-34.1a4.73 4.73 0 0 1-2.86-1.76c-.74-.94-1.1-2-1.1-3.16 0-1.41.48-2.6 1.45-3.58a4.85 4.85 0 0 1 3.57-1.46c1.33 0 2.48.49 3.45 1.46a4.87 4.87 0 0 1 1.46 3.58 4.9 4.9 0 0 1-1.1 3.22zm-1.75-1.06c.58-.58.88-1.3.88-2.16 0-.86-.3-1.59-.88-2.17a2.8 2.8 0 0 0-2.05-.88c-.86 0-1.58.3-2.16.88-.59.58-.88 1.3-.88 2.17 0 .86.3 1.58.88 2.16.58.59 1.3.88 2.16.88.78 0 1.46-.3 2.05-.88zm-34.15 32.63c.74.94 1.1 2 1.1 3.17 0 1.4-.48 2.6-1.45 3.57a4.84 4.84 0 0 1-3.57 1.47 4.7 4.7 0 0 1-3.45-1.47 4.86 4.86 0 0 1-1.46-3.57 4.9 4.9 0 0 1 3.97-4.92v-34.1h2v34.1c1.16.23 2.12.82 2.86 1.75zm-1.76 5.34c.59-.59.88-1.31.88-2.17 0-.86-.3-1.58-.88-2.17a2.94 2.94 0 0 0-2.16-.88c-.78 0-1.46.3-2.05.88-.58.59-.87 1.31-.87 2.17 0 .86.29 1.58.87 2.17a2.8 2.8 0 0 0 2.05.87c.86 0 1.58-.29 2.16-.87zm19.77-24.32c.74.94 1.11 2 1.11 3.17s-.37 2.22-1.11 3.16a4.73 4.73 0 0 1-2.87 1.76v15.11h-2.1v-15.11a4.73 4.73 0 0 1-2.87-1.76c-.74-.94-1.1-2-1.1-3.16 0-1.17.36-2.23 1.1-3.17a4.73 4.73 0 0 1 2.87-1.75v-15.12h2.1v15.12c1.17.23 2.13.82 2.87 1.75zm-.88 3.17c0-.78-.31-1.49-.93-2.11a2.91 2.91 0 0 0-2.1-.94 2.9 2.9 0 0 0-2.11.94 2.92 2.92 0 0 0-.94 2.1c0 .79.31 1.5.94 2.12a2.9 2.9 0 0 0 2.1.93 2.9 2.9 0 0 0 2.1-.93c.63-.63.94-1.33.94-2.11z"/></defs><g><g transform="translate(-804 -10223)"><use fill="#38c695" xlink:href="#tb2ba"/></g></g></svg>