<svg xmlns="http://www.w3.org/2000/svg" xmlns:xlink="http://www.w3.org/1999/xlink" width="38" height="58" viewBox="0 0 38 58"><defs><path id="qdoma" d="M1234.13 10471.84c1.8 2.85 2.7 5.98 2.7 9.41 0 4.83-1.74 8.98-5.22 12.45a17.03 17.03 0 0 1-12.47 5.2c-4.84 0-9-1.73-12.47-5.2a16.96 16.96 0 0 1-5.2-12.45c0-3.43.89-6.56 2.69-9.4a16.8 16.8 0 0 1 7.14-6.38c-3.28-7.87-4.92-12.5-4.92-13.9v-7.6h25.53v7.6c0 1.09-1.64 5.72-4.92 13.9a16.82 16.82 0 0 1 7.14 6.37zm-14.99-8.24c2.11 0 4.1.35 5.98 1.05 3.2-7.48 4.8-11.84 4.8-13.09v-5.6h-9.84v13.43h-1.99v-13.44h-9.72v5.61c0 1.02 1.56 5.38 4.69 13.1 2.02-.7 4.05-1.06 6.08-1.06zm15.7 17.65a15 15 0 0 0-4.63-11.1 15.22 15.22 0 0 0-11.07-4.56c-4.29 0-7.98 1.52-11.06 4.56a15 15 0 0 0-4.63 11.1 15 15 0 0 0 4.63 11.1 15.2 15.2 0 0 0 11.06 4.56c4.3 0 7.98-1.52 11.07-4.55a15 15 0 0 0 4.62-11.1zm-3.87 0c0 3.27-1.15 6.06-3.45 8.36-2.3 2.3-5.1 3.45-8.38 3.45a11.4 11.4 0 0 1-8.37-3.45 11.37 11.37 0 0 1-3.45-8.36c0-3.27 1.15-6.06 3.45-8.36 2.3-2.3 5.1-3.44 8.37-3.44 3.28 0 6.07 1.15 8.38 3.44 2.3 2.3 3.45 5.09 3.45 8.36zm-1.99 0c0-2.65-.96-4.95-2.87-6.9a9.4 9.4 0 0 0-6.97-2.92 9.4 9.4 0 0 0-6.96 2.93 9.52 9.52 0 0 0-2.87 6.9c0 2.64.95 4.94 2.87 6.89a9.4 9.4 0 0 0 6.96 2.92 9.4 9.4 0 0 0 6.97-2.92 9.52 9.52 0 0 0 2.87-6.9z"/></defs><g><g transform="translate(-1200 -10442)"><use fill="#38c695" xlink:href="#qdoma"/></g></g></svg>