<svg xmlns="http://www.w3.org/2000/svg" xmlns:xlink="http://www.w3.org/1999/xlink" width="51" height="51" viewBox="0 0 51 51"><defs><path id="z0kja" d="M853.2 10447.47v47.92h-47.94v-47.92zm-45.96 1.99v9h43.98v-9zm43.98 43.95v-32.96h-43.98v32.96zm-31-40.91h3.05v3.04h-3.04zm14.98 0h3.04v3.04h-3.04zm-12.75 14.73h1.75v15.66h-2.1v-11.1h-3.86v-1.64h.35l2.04-.18c.36-.04.72-.25 1.12-.64.38-.39.62-.97.7-1.75zm15.61 6.54a5.5 5.5 0 0 1 1.46 3.98c0 1.55-.54 2.86-1.63 3.91a5.38 5.38 0 0 1-3.86 1.58 5.26 5.26 0 0 1-3.8-1.4 4.8 4.8 0 0 1-1.47-3.63v-.35h2.1v.35c0 .94.32 1.7.94 2.28.63.59 1.4.88 2.34.88 1.02 0 1.82-.37 2.4-1.11.59-.74.88-1.62.88-2.63 0-1.01-.31-1.85-.94-2.51-.62-.67-1.44-1-2.45-1a3.4 3.4 0 0 0-3.04 1.64l-.12.11h-1.76l1.64-8.41h8.07v1.99h-6.55l-.7 3.62a4.4 4.4 0 0 1 2.57-.82c1.64 0 2.94.5 3.92 1.52z"/></defs><g><g transform="translate(-804 -10446)"><use fill="#fc5f45" xlink:href="#z0kja"/></g></g></svg>