<svg xmlns="http://www.w3.org/2000/svg" xmlns:xlink="http://www.w3.org/1999/xlink" width="55" height="49" viewBox="0 0 55 49"><defs><path id="kyeja" d="M440.31 10483.94v3.86l9.37 5.26-.94 1.75-9.48-5.26-9.49 5.26-.93-1.75 9.36-5.26v-3.86h-24.93v-35.88h51.98v35.88zm-25.05-1.99h48v-31.9h-48zm27.04-26.18l1.88.59-5.5 18.46-6.45-8.88-4.21 8.3-5.62-11.46-3.16 11.7-2-.47 4.57-16.72 6.2 12.5 3.99-7.7 5.97 8.3zm15.22 5.96a5.87 5.87 0 0 1 1.76 4.33c0 1.63-.59 3.04-1.76 4.2a5.9 5.9 0 0 1-4.33 1.76 5.75 5.75 0 0 1-4.21-1.76 5.73 5.73 0 0 1-1.76-4.2c0-1.72.59-3.16 1.76-4.33a5.75 5.75 0 0 1 4.21-1.75 5.9 5.9 0 0 1 4.33 1.75zm-1.46 7.13a3.73 3.73 0 0 0 1.23-2.8c0-1.1-.41-2.03-1.23-2.8a4.04 4.04 0 0 0-5.68 0 3.82 3.82 0 0 0-1.17 2.8c0 1.09.41 2.02 1.23 2.8a3.9 3.9 0 0 0 2.75 1.17c1.1 0 2.05-.39 2.87-1.17z"/></defs><g><g transform="translate(-412 -10447)"><use fill="#feb960" xlink:href="#kyeja"/></g></g></svg>