<svg xmlns="http://www.w3.org/2000/svg" xmlns:xlink="http://www.w3.org/1999/xlink" width="33" height="33" viewBox="0 0 33 33"><defs><path id="ophxa" d="M1418 13595.3c0 1.06-.22 1.8-.64 2.23-.43.43-1.18.66-2.23.7h-24.32c-1.83 0-2.77-.91-2.81-2.75v-5.98c0-.7.21-1.05.64-1.05.36.04.53.39.53 1.05v5.69c0 1.25.6 1.87 1.82 1.87H1415c1.21 0 1.82-.58 1.82-1.76v-9.43c0-.43-.08-.73-.24-.9-.15-.18-.43-.25-.82-.21-.31.08-.6.08-.88 0a4.92 4.92 0 0 0-3.07.32c-.76.41-1.36 1.26-1.79 2.55a5.65 5.65 0 0 1-2.84 3.34 7.13 7.13 0 0 1-4.37 1.05 8.85 8.85 0 0 1-4.62-1.87 7.12 7.12 0 0 1-2.58-3.93c-.28-1.1-.94-1.58-2-1.46h-4.33c-.86.08-1.29-.3-1.29-1.12v-13.12c.08-1.52 1-2.29 2.75-2.29h24.5c1.83 0 2.75.92 2.75 2.76zm-10.05-6.53a6.48 6.48 0 0 0 1.9-4.77c0-1.84-.63-3.37-1.9-4.6a7.1 7.1 0 0 0-4.83-1.97 6.15 6.15 0 0 0-4.66 2 6.47 6.47 0 0 0 .06 9.43 5.69 5.69 0 0 0 4.66 1.82c1.9 0 3.5-.64 4.77-1.9zm8.61-5.54c.22-.2.3-.54.27-1.05-.08-3.67-.08-7.33 0-10.96 0-.66-.15-1.14-.44-1.43-.3-.3-.8-.42-1.5-.38h-23.96c-.63 0-1.08.12-1.35.38-.27.25-.4.7-.4 1.31v11.2c0 .47.08.78.26.93.17.16.47.22.9.18 2.07 0 3.25.02 3.52.06.55.12.94.08 1.17-.12.24-.2.41-.56.53-1.11a7.73 7.73 0 0 1 2.87-4.43 7.2 7.2 0 0 1 4.86-1.6c1.76.07 3.33.64 4.72 1.7a7.62 7.62 0 0 1 2.78 4.27c.2.9.7 1.33 1.53 1.29.93-.12 1.99-.14 3.16-.06.5.08.87.02 1.08-.18zm-2.08-11.13c.24.27.36 1.1.36 2.46 0 1.3-.16 2.1-.47 2.43-.32.34-1.08.5-2.29.5-1.25 0-2.04-.17-2.37-.53-.33-.35-.5-1.2-.5-2.57 0-1.33.14-2.11.41-2.35.27-.23 1.15-.35 2.64-.35 1.25 0 1.99.14 2.22.41zm-1.14.97c-.21-.26-.63-.3-1.26-.15-.62-.12-1.07-.07-1.35.15-.27.21-.39.65-.35 1.32.04.7.15 1.19.33 1.46.17.27.59.4 1.25.35.67-.04 1.13-.17 1.38-.4.26-.24.38-.69.38-1.35-.04-.67-.16-1.13-.38-1.38zm-7.67 15.17c.05.06.02.13-.12.2a1.7 1.7 0 0 0-.24.16l-.26.14-.23.06c-.9.27-1.5.4-1.82.35-1.56 0-2.9-.67-3.98-2.02a4.47 4.47 0 0 1-1-4.25l.06-.3c.04-.15.08-.26.12-.34.03-.08.1-.15.17-.2.08-.07.2-.08.35-.04.4.04.55.41.47 1.12-.27 1.64.14 2.92 1.23 3.83 1.1.92 2.44 1.17 4.04.74.67-.24 1.06-.16 1.18.23-.04.16-.03.27.03.32z"/></defs><g><g transform="translate(-1386 -13567)"><use fill="#fff" xlink:href="#ophxa"/></g></g></svg>