<svg xmlns="http://www.w3.org/2000/svg" xmlns:xlink="http://www.w3.org/1999/xlink" width="32" height="33" viewBox="0 0 32 33"><defs><path id="s0i4a" d="M1327.18 13568.94c.47.47.7 1.3.7 2.52 0 10.43-.02 18.26-.06 23.5 0 1.2-.24 2.05-.73 2.54-.49.5-1.34.73-2.55.73h-9.66c-.67 0-1.14-.11-1.41-.35-.27-.23-.4-.68-.35-1.35v-5.06c0-2.25.02-3.94.06-5.07 0-.59-.1-.99-.3-1.2-.2-.22-.56-.3-1.11-.27-.55.08-1.37.08-2.46 0-.47 0-.7-.17-.7-.52 0-.4.23-.59.7-.59h2.69c.47.04.8-.04.97-.23.18-.2.24-.51.2-.94a22.81 22.81 0 0 1 0-3.28c.04-1.25.45-2.18 1.24-2.79.78-.6 1.8-.8 3.04-.61a8 8 0 0 1 2.76.82c.5.23.7.5.58.82-.2.43-.6.5-1.23.23a7.26 7.26 0 0 0-2.93-.7c-1.17 0-1.87.57-2.1 1.7-.12.43-.2.88-.21 1.35-.02.47-.02 1 0 1.58l.03 1.35v.23c.04.31.35.47.94.47h4.5c.67 0 1 .2 1 .59 0 .54-.35.78-1.05.7-.94 0-2.42-.04-4.45-.12-.4-.04-.66.02-.8.18-.13.15-.2.43-.2.82.08 3.24.08 6.5 0 9.78 0 .75.35 1.12 1.05 1.12a157.63 157.63 0 0 1 6.33.11c1.25.04 2.23.06 2.93.06.78 0 1.3-.12 1.53-.38.23-.25.37-.79.4-1.61l.18-23.2c0-1.06-.12-1.7-.35-1.9-.23-.22-.9-.35-2-.39a808.8 808.8 0 0 0-22.79-.23c-.93 0-1.5.1-1.7.32-.2.22-.33.81-.4 1.79l-.18 23.08c0 1.06.13 1.7.38 1.94.25.23.89.35 1.9.35 2.27 0 3.95.02 5.04.06.82 0 1.25.2 1.3.58 0 .47-.42.7-1.24.7h-5.92c-1.68-.07-2.55-.99-2.63-2.75v-12.13h.06v-11.95c0-1.17.23-2 .7-2.46.47-.47 1.27-.68 2.4-.65h23.38c1.21 0 2.05.24 2.52.7z"/></defs><g><g transform="translate(-1297 -13567)"><use fill="#fff" xlink:href="#s0i4a"/></g></g></svg>