<svg xmlns="http://www.w3.org/2000/svg" xmlns:xlink="http://www.w3.org/1999/xlink" width="34" height="29" viewBox="0 0 34 29"><defs><path id="lvssa" d="M1372.88 13574.33c-.31.62-.6 1.05-.88 1.29-.54.35-.96.8-1.26 1.37-.29.57-.48 1.08-.58 1.53-.1.45-.19 1.04-.27 1.78a17.07 17.07 0 0 1-4.3 9.67 16.55 16.55 0 0 1-9.05 5.4 16.6 16.6 0 0 1-12.98-2.17 1.3 1.3 0 0 1-.33-.18l-.2-.26c-.1-.14-.09-.27.03-.39.04-.15.1-.26.2-.32s.2-.08.3-.06a5.61 5.61 0 0 0 .67.1c2.27.23 4.06.07 5.4-.48.58-.15.93-.06 1.05.3.07.35-.16.6-.7.76-.36.11-.88.26-1.56.44-.68.17-1.22.32-1.61.44 2.23.9 4.35 1.29 6.39 1.17 4.3-.24 7.8-1.71 10.54-4.43a17.43 17.43 0 0 0 5.16-10.57v-.59-.61c0-.1 0-.3.03-.59.02-.3.06-.5.11-.61l.21-.5c.08-.22.18-.38.32-.5a6.58 6.58 0 0 1 1.14-.76.88.88 0 0 1-.23-.18l-.12-.06c-.11 0-.3.04-.55.12-.26.08-.47.1-.65.09-.17-.02-.32-.15-.44-.38-.11-.24-.12-.42-.03-.56.1-.13.27-.27.5-.4.24-.15.4-.25.47-.33l.35-.53-.17-.17c-1.14.46-2.3.27-3.52-.59a4.74 4.74 0 0 0-5.24-.23 5.09 5.09 0 0 0-2.85 4.57c-.07 1.2-.21 1.9-.4 2.08-.2.17-.92.14-2.17-.1-3.4-.58-6.68-2.34-9.85-5.27-.5.79-.65 1.72-.44 2.82a6 6 0 0 0 1.5 2.93c.08.08.23.18.47.32.23.14.37.25.4.35.04.1.04.28 0 .56-.11.23-.26.37-.43.4-.18.05-.41.02-.7-.08-.3-.1-.5-.15-.62-.15a5.52 5.52 0 0 0-.65-.17 5.42 5.42 0 0 0 3.29 4.27l.46.12c.36.08.57.18.65.3.08.11.1.27.06.46-.08.35-.59.57-1.53.65l-.58.12a5.18 5.18 0 0 0 3.57 2.8h.41a3.25 3.25 0 0 1 .76.18c.08.04.16.11.24.2.08.1.1.25.06.45-.08.43-.5.55-1.23.35a6.22 6.22 0 0 1-4.4-2.87 4.05 4.05 0 0 1-.64-1.05.93.93 0 0 1-.12-.42c0-.11 0-.25.03-.4.02-.16.07-.32.15-.48 0-.19 0-.3.02-.35.02-.04-.06-.13-.26-.29l-.23-.18a6.62 6.62 0 0 1-1.94-4.1l-.06-.35v-.26c0-.14.03-.24.1-.3.05-.05.14-.11.26-.17.11-.06.27-.1.47-.15.35-.04.39-.23.11-.58a6.75 6.75 0 0 1-.35-5.68c.24-.67.48-1.02.73-1.06.26-.04.62.2 1.09.7a16.75 16.75 0 0 0 8.96 5.27c.59.12 1 .11 1.23-.02.24-.14.37-.5.41-1.09a6.96 6.96 0 0 1 3.46-5.33 5.38 5.38 0 0 1 5.8 0c1.64.94 3.18.94 4.63 0 .5-.24.88-.24 1.11 0 .2.2.16.55-.11 1.05-.04.16-.12.36-.24.59-.12.23-.2.41-.23.53.15.15.37.17.64.06l.24-.06c.62 0 .8.27.52.82z"/></defs><g><g transform="translate(-1341 -13569)"><use fill="#fff" xlink:href="#lvssa"/></g></g></svg>