<svg xmlns="http://www.w3.org/2000/svg" xmlns:xlink="http://www.w3.org/1999/xlink" width="30" height="33" viewBox="0 0 30 33"><defs><path id="vh7fa" d="M1450.23 13595.83c-.7.9-1.76 1.55-3.17 1.94-1.01.23-1.78.37-2.28.4h-2.93a16.3 16.3 0 0 1-4.86-1.06 5.1 5.1 0 0 1-2.64-2.63c-.16-.54-.26-.95-.3-1.23v-1.17a.52.52 0 0 0 .06-.23c.04-.51.2-1.02.47-1.53.12-.23.2-.37.24-.4.2-.08.4.05.61.4.22.36.27.67.15.94-.24.47-.32 1.15-.24 2.05.16 1.1.75 1.92 1.76 2.46.59.35 1.21.59 1.88.7 1.36.36 3.06.5 5.1.42 1.05 0 1.99-.14 2.8-.41 1.14-.32 2-.88 2.58-1.7.43-.67.65-1.57.65-2.7a4.11 4.11 0 0 0-1.47-3.34.4.4 0 0 0-.29-.12 49.8 49.8 0 0 0-5.8-.4c-1.52.07-2.75.25-3.7.52a1.97 1.97 0 0 0-.64.18c-.11 0-.24-.08-.38-.24a1.53 1.53 0 0 1-.29-.47c-.06-.15-.05-.27.03-.35 1.72-.66 4.06-.95 7.03-.88.16 0 .41.02.76.06.35.04.63.06.82.06a11.12 11.12 0 0 0-1.17-.94c-.98-.82-1.35-1.77-1.11-2.87 0-.08-.02-.13-.06-.17h-.12c-.9.15-1.78.15-2.63 0a6.65 6.65 0 0 1-5.45-4.46 8.48 8.48 0 0 1-.41-4.16c.2-1.36.6-2.46 1.23-3.28.93-1.33 2.4-2.22 4.4-2.7l.78-.14c.33-.06.58-.09.73-.09 2.47-.15 5.12-.15 7.97 0 .16 0 .28.14.36.41.07.2.05.38-.06.56a.6.6 0 0 1-.53.26h-2.75a.66.66 0 0 0-.3.06 1.87 1.87 0 0 1 .59.53 7.1 7.1 0 0 1 2.4 4.51c.2 2.5-.39 4.51-1.76 6.04-.35.35-1 .84-1.93 1.46-.31.23-.55.43-.7.59-.79.66-.84 1.38-.18 2.16.31.36.7.67 1.17.94a74.41 74.41 0 0 1 2.7 1.88c1.1.93 1.74 1.99 1.93 3.16.31 2-.04 3.65-1.05 4.98zm-1.41-19.4a5.65 5.65 0 0 0-.59-3.57c-1.05-1.87-2.46-2.95-4.21-3.22a7.8 7.8 0 0 0-4.7.76 4.6 4.6 0 0 0-2.45 2.81 7.28 7.28 0 0 0 .35 5.92c1.13 1.92 2.95 2.87 5.45 2.87 1.64-.04 3.26-.86 4.86-2.46.66-.66 1.1-1.7 1.29-3.1zm13.13 6.34c-.16.3-.45.46-.88.46h-3.1c-.28 0-.42.12-.42.36v3.16c0 .59-.2.88-.59.88-.43-.08-.64-.37-.64-.88v-3.22c0-.2-.1-.3-.3-.3h-3.22c-.54 0-.82-.2-.82-.58 0-.43.28-.65.82-.65h3.17c.23 0 .35-.13.35-.4v-3.4c.08-.43.3-.61.64-.53.4 0 .6.17.6.53V13581.7c0 .2.1.3.34.3h3.17c.39 0 .68.13.88.4z"/></defs><g><g transform="translate(-1433 -13567)"><use fill="#fff" xlink:href="#vh7fa"/></g></g></svg>