<svg xmlns="http://www.w3.org/2000/svg" xmlns:xlink="http://www.w3.org/1999/xlink" width="49" height="53" viewBox="0 0 49 53"><defs><path id="fbd6a" d="M798.7 5959.97a17.4 17.4 0 0 0-5.24 12.71v4.01h22.02v1.96h-24.07v-5.97a19.6 19.6 0 0 1 4.1-12.22 18.88 18.88 0 0 1 10.38-7.04 12.91 12.91 0 0 1-4.8-4.4c-1.23-1.89-1.85-4-1.85-6.36a11.5 11.5 0 0 1 3.57-8.5 11.65 11.65 0 0 1 8.46-3.52 11.6 11.6 0 0 1 8.52 3.52 11.58 11.58 0 0 1 3.52 8.5 11.8 11.8 0 0 1-6.66 10.76c3.4.85 6.43 2.6 9.1 5.28h-3.03a17.5 17.5 0 0 0-11.25-4 17.3 17.3 0 0 0-12.77 5.27zm12.77-7.33a9.8 9.8 0 0 0 7.14-2.89 9.55 9.55 0 0 0 2.94-7.09c0-2.8-.98-5.16-2.94-7.08a9.82 9.82 0 0 0-7.14-2.89c-2.8 0-5.17.96-7.1 2.89a9.63 9.63 0 0 0-2.88 7.08c0 2.8.96 5.17 2.88 7.1a9.64 9.64 0 0 0 7.1 2.88zm26.12 22.1h-6.06v5.96h-1.96v-5.96h-6.07v-2.06h6.07v-5.96h1.96v5.96h6.06z"/></defs><g><g transform="translate(-790 -5929)"><use fill="#38c695" xlink:href="#fbd6a"/></g></g></svg>