<svg xmlns="http://www.w3.org/2000/svg" xmlns:xlink="http://www.w3.org/1999/xlink" width="53" height="46" viewBox="0 0 53 46"><defs><path id="r5yza" d="M1132.55 5947.69c0 3.7-1.3 6.86-3.91 9.48l-21.14 20.05-21.13-19.85a13.34 13.34 0 0 1-3.92-9.64c0-3.73 1.3-6.9 3.92-9.53 2.54-2.56 5.8-3.83 9.78-3.83 3.72 0 6.85 1.27 9.4 3.83a30.85 30.85 0 0 1 2.15 2.95 12.74 12.74 0 0 1 11.55-6.78c3.71 0 6.84 1.27 9.39 3.83a12.96 12.96 0 0 1 3.91 9.49zm-5.48-8.31a10.51 10.51 0 0 0-8.02-3.34c-3.2 0-5.9 1.11-8.12 3.34-.53.66-1.08 1.4-1.67 2.26l-1.76 2.95-1.76-2.95a18 18 0 0 0-1.66-2.26 11.03 11.03 0 0 0-8.12-3.34c-3.2 0-5.94 1.18-8.22 3.54a11 11 0 0 0-3.33 8.06c0 3.2 1.1 5.93 3.33 8.15l19.76 18.98 19.77-18.98c2.08-2.1 3.13-4.88 3.13-8.35 0-3.15-1.11-5.83-3.33-8.06z"/></defs><g><g transform="translate(-1081 -5933)"><use fill="#b27cf5" xlink:href="#r5yza"/></g></g></svg>